<?xml version="1.0" encoding="utf-8" standalone="no"?>
<!DOCTYPE svg PUBLIC "-//W3C//DTD SVG 1.1//EN"
  "http://www.w3.org/Graphics/SVG/1.1/DTD/svg11.dtd">
<svg xmlns:xlink="http://www.w3.org/1999/xlink" width="460.8pt" height="345.6pt" viewBox="0 0 460.8 345.6" xmlns="http://www.w3.org/2000/svg" version="1.1">
 <metadata>
  <rdf:RDF xmlns:dc="http://purl.org/dc/elements/1.1/" xmlns:cc="http://creativecommons.org/ns#" xmlns:rdf="http://www.w3.org/1999/02/22-rdf-syntax-ns#">
   <cc:Work>
    <dc:type rdf:resource="http://purl.org/dc/dcmitype/StillImage"/>
    <dc:date>2024-05-27T12:32:16.370794</dc:date>
    <dc:format>image/svg+xml</dc:format>
    <dc:creator>
     <cc:Agent>
      <dc:title>Matplotlib v3.8.0, https://matplotlib.org/</dc:title>
     </cc:Agent>
    </dc:creator>
   </cc:Work>
  </rdf:RDF>
 </metadata>
 <defs>
  <style type="text/css">*{stroke-linejoin: round; stroke-linecap: butt}</style>
 </defs>
 <g id="figure_1">
  <g id="patch_1">
   <path d="M 0 345.6 
L 460.8 345.6 
L 460.8 0 
L 0 0 
z
" style="fill: #ffffff"/>
  </g>
  <g id="axes_1">
   <g id="patch_2">
    <path d="M 57.6 307.584 
L 414.72 307.584 
L 414.72 41.472 
L 57.6 41.472 
z
" style="fill: #ffffff"/>
   </g>
   <g id="PathCollection_1">
    <defs>
     <path id="mbfc91e7245" d="M 0 1.581139 
C 0.419323 1.581139 0.821528 1.41454 1.118034 1.118034 
C 1.41454 0.821528 1.581139 0.419323 1.581139 0 
C 1.581139 -0.419323 1.41454 -0.821528 1.118034 -1.118034 
C 0.821528 -1.41454 0.419323 -1.581139 0 -1.581139 
C -0.419323 -1.581139 -0.821528 -1.41454 -1.118034 -1.118034 
C -1.41454 -0.821528 -1.581139 -0.419323 -1.581139 0 
C -1.581139 0.419323 -1.41454 0.821528 -1.118034 1.118034 
C -0.821528 1.41454 -0.419323 1.581139 0 1.581139 
z
" style="stroke: #1f77b4"/>
    </defs>
    <g clip-path="url(#pa4d9cf83ea)">
     <use xlink:href="#mbfc91e7245" x="73.832727" y="295.488" style="fill: #1f77b4; stroke: #1f77b4"/>
     <use xlink:href="#mbfc91e7245" x="85.027712" y="287.598376" style="fill: #1f77b4; stroke: #1f77b4"/>
     <use xlink:href="#mbfc91e7245" x="96.222696" y="291.78796" style="fill: #1f77b4; stroke: #1f77b4"/>
     <use xlink:href="#mbfc91e7245" x="107.41768" y="287.985457" style="fill: #1f77b4; stroke: #1f77b4"/>
     <use xlink:href="#mbfc91e7245" x="118.612665" y="286.078514" style="fill: #1f77b4; stroke: #1f77b4"/>
     <use xlink:href="#mbfc91e7245" x="129.807649" y="285.002656" style="fill: #1f77b4; stroke: #1f77b4"/>
     <use xlink:href="#mbfc91e7245" x="141.002633" y="281.689697" style="fill: #1f77b4; stroke: #1f77b4"/>
     <use xlink:href="#mbfc91e7245" x="152.197618" y="288.577464" style="fill: #1f77b4; stroke: #1f77b4"/>
     <use xlink:href="#mbfc91e7245" x="163.392602" y="284.376495" style="fill: #1f77b4; stroke: #1f77b4"/>
     <use xlink:href="#mbfc91e7245" x="174.587586" y="264.942747" style="fill: #1f77b4; stroke: #1f77b4"/>
     <use xlink:href="#mbfc91e7245" x="185.782571" y="279.179362" style="fill: #1f77b4; stroke: #1f77b4"/>
     <use xlink:href="#mbfc91e7245" x="196.977555" y="278.348276" style="fill: #1f77b4; stroke: #1f77b4"/>
     <use xlink:href="#mbfc91e7245" x="208.172539" y="273.16822" style="fill: #1f77b4; stroke: #1f77b4"/>
     <use xlink:href="#mbfc91e7245" x="219.367524" y="257.064508" style="fill: #1f77b4; stroke: #1f77b4"/>
     <use xlink:href="#mbfc91e7245" x="230.562508" y="270.492807" style="fill: #1f77b4; stroke: #1f77b4"/>
     <use xlink:href="#mbfc91e7245" x="241.757492" y="259.079606" style="fill: #1f77b4; stroke: #1f77b4"/>
     <use xlink:href="#mbfc91e7245" x="252.952476" y="254.992485" style="fill: #1f77b4; stroke: #1f77b4"/>
     <use xlink:href="#mbfc91e7245" x="264.147461" y="245.093455" style="fill: #1f77b4; stroke: #1f77b4"/>
     <use xlink:href="#mbfc91e7245" x="275.342445" y="239.298623" style="fill: #1f77b4; stroke: #1f77b4"/>
     <use xlink:href="#mbfc91e7245" x="286.537429" y="246.579164" style="fill: #1f77b4; stroke: #1f77b4"/>
     <use xlink:href="#mbfc91e7245" x="297.732414" y="243.47113" style="fill: #1f77b4; stroke: #1f77b4"/>
     <use xlink:href="#mbfc91e7245" x="308.927398" y="233.674563" style="fill: #1f77b4; stroke: #1f77b4"/>
     <use xlink:href="#mbfc91e7245" x="320.122382" y="238.359382" style="fill: #1f77b4; stroke: #1f77b4"/>
     <use xlink:href="#mbfc91e7245" x="331.317367" y="241.438954" style="fill: #1f77b4; stroke: #1f77b4"/>
     <use xlink:href="#mbfc91e7245" x="342.512351" y="228.164349" style="fill: #1f77b4; stroke: #1f77b4"/>
     <use xlink:href="#mbfc91e7245" x="353.707335" y="227.088491" style="fill: #1f77b4; stroke: #1f77b4"/>
     <use xlink:href="#mbfc91e7245" x="364.90232" y="222.170284" style="fill: #1f77b4; stroke: #1f77b4"/>
     <use xlink:href="#mbfc91e7245" x="376.097304" y="230.048523" style="fill: #1f77b4; stroke: #1f77b4"/>
     <use xlink:href="#mbfc91e7245" x="387.292288" y="212.69249" style="fill: #1f77b4; stroke: #1f77b4"/>
     <use xlink:href="#mbfc91e7245" x="398.487273" y="213.432498" style="fill: #1f77b4; stroke: #1f77b4"/>
    </g>
   </g>
   <g id="PathCollection_2">
    <defs>
     <path id="m090f4bf57e" d="M 0 1.581139 
C 0.419323 1.581139 0.821528 1.41454 1.118034 1.118034 
C 1.41454 0.821528 1.581139 0.419323 1.581139 0 
C 1.581139 -0.419323 1.41454 -0.821528 1.118034 -1.118034 
C 0.821528 -1.41454 0.419323 -1.581139 0 -1.581139 
C -0.419323 -1.581139 -0.821528 -1.41454 -1.118034 -1.118034 
C -1.41454 -0.821528 -1.581139 -0.419323 -1.581139 0 
C -1.581139 0.419323 -1.41454 0.821528 -1.118034 1.118034 
C -0.821528 1.41454 -0.419323 1.581139 0 1.581139 
z
" style="stroke: #ff7f0e"/>
    </defs>
    <g clip-path="url(#pa4d9cf83ea)">
     <use xlink:href="#m090f4bf57e" x="73.832727" y="106.171184" style="fill: #ff7f0e; stroke: #ff7f0e"/>
     <use xlink:href="#m090f4bf57e" x="85.027712" y="76.912406" style="fill: #ff7f0e; stroke: #ff7f0e"/>
     <use xlink:href="#m090f4bf57e" x="96.222696" y="68.954474" style="fill: #ff7f0e; stroke: #ff7f0e"/>
     <use xlink:href="#m090f4bf57e" x="107.41768" y="65.590284" style="fill: #ff7f0e; stroke: #ff7f0e"/>
     <use xlink:href="#m090f4bf57e" x="118.612665" y="61.878859" style="fill: #ff7f0e; stroke: #ff7f0e"/>
     <use xlink:href="#m090f4bf57e" x="129.807649" y="59.396986" style="fill: #ff7f0e; stroke: #ff7f0e"/>
     <use xlink:href="#m090f4bf57e" x="141.002633" y="59.436833" style="fill: #ff7f0e; stroke: #ff7f0e"/>
     <use xlink:href="#m090f4bf57e" x="152.197618" y="58.924519" style="fill: #ff7f0e; stroke: #ff7f0e"/>
     <use xlink:href="#m090f4bf57e" x="163.392602" y="58.019433" style="fill: #ff7f0e; stroke: #ff7f0e"/>
     <use xlink:href="#m090f4bf57e" x="174.587586" y="56.960652" style="fill: #ff7f0e; stroke: #ff7f0e"/>
     <use xlink:href="#m090f4bf57e" x="185.782571" y="56.960652" style="fill: #ff7f0e; stroke: #ff7f0e"/>
     <use xlink:href="#m090f4bf57e" x="196.977555" y="56.533724" style="fill: #ff7f0e; stroke: #ff7f0e"/>
     <use xlink:href="#m090f4bf57e" x="208.172539" y="56.340184" style="fill: #ff7f0e; stroke: #ff7f0e"/>
     <use xlink:href="#m090f4bf57e" x="219.367524" y="55.474944" style="fill: #ff7f0e; stroke: #ff7f0e"/>
     <use xlink:href="#m090f4bf57e" x="230.562508" y="57.02896" style="fill: #ff7f0e; stroke: #ff7f0e"/>
     <use xlink:href="#m090f4bf57e" x="241.757492" y="56.203567" style="fill: #ff7f0e; stroke: #ff7f0e"/>
     <use xlink:href="#m090f4bf57e" x="252.952476" y="54.74632" style="fill: #ff7f0e; stroke: #ff7f0e"/>
     <use xlink:href="#m090f4bf57e" x="264.147461" y="54.831706" style="fill: #ff7f0e; stroke: #ff7f0e"/>
     <use xlink:href="#m090f4bf57e" x="275.342445" y="54.615396" style="fill: #ff7f0e; stroke: #ff7f0e"/>
     <use xlink:href="#m090f4bf57e" x="286.537429" y="54.905707" style="fill: #ff7f0e; stroke: #ff7f0e"/>
     <use xlink:href="#m090f4bf57e" x="297.732414" y="55.099247" style="fill: #ff7f0e; stroke: #ff7f0e"/>
     <use xlink:href="#m090f4bf57e" x="308.927398" y="54.364932" style="fill: #ff7f0e; stroke: #ff7f0e"/>
     <use xlink:href="#m090f4bf57e" x="320.122382" y="53.80708" style="fill: #ff7f0e; stroke: #ff7f0e"/>
     <use xlink:href="#m090f4bf57e" x="331.317367" y="53.943696" style="fill: #ff7f0e; stroke: #ff7f0e"/>
     <use xlink:href="#m090f4bf57e" x="342.512351" y="53.568" style="fill: #ff7f0e; stroke: #ff7f0e"/>
     <use xlink:href="#m090f4bf57e" x="353.707335" y="55.366789" style="fill: #ff7f0e; stroke: #ff7f0e"/>
     <use xlink:href="#m090f4bf57e" x="364.90232" y="53.892465" style="fill: #ff7f0e; stroke: #ff7f0e"/>
     <use xlink:href="#m090f4bf57e" x="376.097304" y="54.199853" style="fill: #ff7f0e; stroke: #ff7f0e"/>
     <use xlink:href="#m090f4bf57e" x="387.292288" y="53.676155" style="fill: #ff7f0e; stroke: #ff7f0e"/>
     <use xlink:href="#m090f4bf57e" x="398.487273" y="53.585077" style="fill: #ff7f0e; stroke: #ff7f0e"/>
    </g>
   </g>
   <g id="PathCollection_3">
    <defs>
     <path id="m3373c94646" d="M 0 1.581139 
C 0.419323 1.581139 0.821528 1.41454 1.118034 1.118034 
C 1.41454 0.821528 1.581139 0.419323 1.581139 0 
C 1.581139 -0.419323 1.41454 -0.821528 1.118034 -1.118034 
C 0.821528 -1.41454 0.419323 -1.581139 0 -1.581139 
C -0.419323 -1.581139 -0.821528 -1.41454 -1.118034 -1.118034 
C -1.41454 -0.821528 -1.581139 -0.419323 -1.581139 0 
C -1.581139 0.419323 -1.41454 0.821528 -1.118034 1.118034 
C -0.821528 1.41454 -0.419323 1.581139 0 1.581139 
z
" style="stroke: #2ca02c"/>
    </defs>
    <g clip-path="url(#pa4d9cf83ea)">
     <use xlink:href="#m3373c94646" x="73.832727" y="128.860968" style="fill: #2ca02c; stroke: #2ca02c"/>
     <use xlink:href="#m3373c94646" x="85.027712" y="93.795973" style="fill: #2ca02c; stroke: #2ca02c"/>
     <use xlink:href="#m3373c94646" x="96.222696" y="74.578535" style="fill: #2ca02c; stroke: #2ca02c"/>
     <use xlink:href="#m3373c94646" x="107.41768" y="68.425084" style="fill: #2ca02c; stroke: #2ca02c"/>
     <use xlink:href="#m3373c94646" x="118.612665" y="66.575064" style="fill: #2ca02c; stroke: #2ca02c"/>
     <use xlink:href="#m3373c94646" x="129.807649" y="65.021047" style="fill: #2ca02c; stroke: #2ca02c"/>
     <use xlink:href="#m3373c94646" x="141.002633" y="63.603647" style="fill: #2ca02c; stroke: #2ca02c"/>
     <use xlink:href="#m3373c94646" x="152.197618" y="61.212852" style="fill: #2ca02c; stroke: #2ca02c"/>
     <use xlink:href="#m3373c94646" x="163.392602" y="58.87898" style="fill: #2ca02c; stroke: #2ca02c"/>
     <use xlink:href="#m3373c94646" x="174.587586" y="61.298237" style="fill: #2ca02c; stroke: #2ca02c"/>
     <use xlink:href="#m3373c94646" x="185.782571" y="58.78221" style="fill: #2ca02c; stroke: #2ca02c"/>
     <use xlink:href="#m3373c94646" x="196.977555" y="58.725287" style="fill: #2ca02c; stroke: #2ca02c"/>
     <use xlink:href="#m3373c94646" x="208.172539" y="58.053587" style="fill: #2ca02c; stroke: #2ca02c"/>
     <use xlink:href="#m3373c94646" x="219.367524" y="57.347733" style="fill: #2ca02c; stroke: #2ca02c"/>
     <use xlink:href="#m3373c94646" x="230.562508" y="58.605747" style="fill: #2ca02c; stroke: #2ca02c"/>
     <use xlink:href="#m3373c94646" x="241.757492" y="57.529889" style="fill: #2ca02c; stroke: #2ca02c"/>
     <use xlink:href="#m3373c94646" x="252.952476" y="56.579263" style="fill: #2ca02c; stroke: #2ca02c"/>
     <use xlink:href="#m3373c94646" x="264.147461" y="57.404657" style="fill: #2ca02c; stroke: #2ca02c"/>
     <use xlink:href="#m3373c94646" x="275.342445" y="57.063115" style="fill: #2ca02c; stroke: #2ca02c"/>
     <use xlink:href="#m3373c94646" x="286.537429" y="55.856332" style="fill: #2ca02c; stroke: #2ca02c"/>
     <use xlink:href="#m3373c94646" x="297.732414" y="56.721573" style="fill: #2ca02c; stroke: #2ca02c"/>
     <use xlink:href="#m3373c94646" x="308.927398" y="55.782332" style="fill: #2ca02c; stroke: #2ca02c"/>
     <use xlink:href="#m3373c94646" x="320.122382" y="56.021411" style="fill: #2ca02c; stroke: #2ca02c"/>
     <use xlink:href="#m3373c94646" x="331.317367" y="56.072642" style="fill: #2ca02c; stroke: #2ca02c"/>
     <use xlink:href="#m3373c94646" x="342.512351" y="56.260491" style="fill: #2ca02c; stroke: #2ca02c"/>
     <use xlink:href="#m3373c94646" x="353.707335" y="55.987257" style="fill: #2ca02c; stroke: #2ca02c"/>
     <use xlink:href="#m3373c94646" x="364.90232" y="56.516647" style="fill: #2ca02c; stroke: #2ca02c"/>
     <use xlink:href="#m3373c94646" x="376.097304" y="54.877245" style="fill: #2ca02c; stroke: #2ca02c"/>
     <use xlink:href="#m3373c94646" x="387.292288" y="54.609704" style="fill: #2ca02c; stroke: #2ca02c"/>
     <use xlink:href="#m3373c94646" x="398.487273" y="54.882937" style="fill: #2ca02c; stroke: #2ca02c"/>
    </g>
   </g>
   <g id="PathCollection_4">
    <defs>
     <path id="m0d726690cd" d="M 0 1.581139 
C 0.419323 1.581139 0.821528 1.41454 1.118034 1.118034 
C 1.41454 0.821528 1.581139 0.419323 1.581139 0 
C 1.581139 -0.419323 1.41454 -0.821528 1.118034 -1.118034 
C 0.821528 -1.41454 0.419323 -1.581139 0 -1.581139 
C -0.419323 -1.581139 -0.821528 -1.41454 -1.118034 -1.118034 
C -1.41454 -0.821528 -1.581139 -0.419323 -1.581139 0 
C -1.581139 0.419323 -1.41454 0.821528 -1.118034 1.118034 
C -0.821528 1.41454 -0.419323 1.581139 0 1.581139 
z
" style="stroke: #d62728"/>
    </defs>
    <g clip-path="url(#pa4d9cf83ea)">
     <use xlink:href="#m0d726690cd" x="73.832727" y="167.398308" style="fill: #d62728; stroke: #d62728"/>
     <use xlink:href="#m0d726690cd" x="85.027712" y="97.985557" style="fill: #d62728; stroke: #d62728"/>
     <use xlink:href="#m0d726690cd" x="96.222696" y="79.502434" style="fill: #d62728; stroke: #d62728"/>
     <use xlink:href="#m0d726690cd" x="107.41768" y="73.331906" style="fill: #d62728; stroke: #d62728"/>
     <use xlink:href="#m0d726690cd" x="118.612665" y="66.256291" style="fill: #d62728; stroke: #d62728"/>
     <use xlink:href="#m0d726690cd" x="129.807649" y="64.633966" style="fill: #d62728; stroke: #d62728"/>
     <use xlink:href="#m0d726690cd" x="141.002633" y="65.271511" style="fill: #d62728; stroke: #d62728"/>
     <use xlink:href="#m0d726690cd" x="152.197618" y="61.565779" style="fill: #d62728; stroke: #d62728"/>
     <use xlink:href="#m0d726690cd" x="163.392602" y="61.406392" style="fill: #d62728; stroke: #d62728"/>
     <use xlink:href="#m0d726690cd" x="174.587586" y="61.275468" style="fill: #d62728; stroke: #d62728"/>
     <use xlink:href="#m0d726690cd" x="185.782571" y="59.607604" style="fill: #d62728; stroke: #d62728"/>
     <use xlink:href="#m0d726690cd" x="196.977555" y="61.360853" style="fill: #d62728; stroke: #d62728"/>
     <use xlink:href="#m0d726690cd" x="208.172539" y="58.884673" style="fill: #d62728; stroke: #d62728"/>
     <use xlink:href="#m0d726690cd" x="219.367524" y="59.966223" style="fill: #d62728; stroke: #d62728"/>
     <use xlink:href="#m0d726690cd" x="230.562508" y="58.622824" style="fill: #d62728; stroke: #d62728"/>
     <use xlink:href="#m0d726690cd" x="241.757492" y="58.082049" style="fill: #d62728; stroke: #d62728"/>
     <use xlink:href="#m0d726690cd" x="252.952476" y="57.50712" style="fill: #d62728; stroke: #d62728"/>
     <use xlink:href="#m0d726690cd" x="264.147461" y="57.353426" style="fill: #d62728; stroke: #d62728"/>
     <use xlink:href="#m0d726690cd" x="275.342445" y="57.461581" style="fill: #d62728; stroke: #d62728"/>
     <use xlink:href="#m0d726690cd" x="286.537429" y="58.030817" style="fill: #d62728; stroke: #d62728"/>
     <use xlink:href="#m0d726690cd" x="297.732414" y="56.875267" style="fill: #d62728; stroke: #d62728"/>
     <use xlink:href="#m0d726690cd" x="308.927398" y="57.717737" style="fill: #d62728; stroke: #d62728"/>
     <use xlink:href="#m0d726690cd" x="320.122382" y="56.972037" style="fill: #d62728; stroke: #d62728"/>
     <use xlink:href="#m0d726690cd" x="331.317367" y="56.898036" style="fill: #d62728; stroke: #d62728"/>
     <use xlink:href="#m0d726690cd" x="342.512351" y="56.18649" style="fill: #d62728; stroke: #d62728"/>
     <use xlink:href="#m0d726690cd" x="353.707335" y="56.636187" style="fill: #d62728; stroke: #d62728"/>
     <use xlink:href="#m0d726690cd" x="364.90232" y="56.015719" style="fill: #d62728; stroke: #d62728"/>
     <use xlink:href="#m0d726690cd" x="376.097304" y="56.562186" style="fill: #d62728; stroke: #d62728"/>
     <use xlink:href="#m0d726690cd" x="387.292288" y="56.30603" style="fill: #d62728; stroke: #d62728"/>
     <use xlink:href="#m0d726690cd" x="398.487273" y="56.249106" style="fill: #d62728; stroke: #d62728"/>
    </g>
   </g>
   <g id="PathCollection_5">
    <defs>
     <path id="m28577cfc72" d="M 0 1.581139 
C 0.419323 1.581139 0.821528 1.41454 1.118034 1.118034 
C 1.41454 0.821528 1.581139 0.419323 1.581139 0 
C 1.581139 -0.419323 1.41454 -0.821528 1.118034 -1.118034 
C 0.821528 -1.41454 0.419323 -1.581139 0 -1.581139 
C -0.419323 -1.581139 -0.821528 -1.41454 -1.118034 -1.118034 
C -1.41454 -0.821528 -1.581139 -0.419323 -1.581139 0 
C -1.581139 0.419323 -1.41454 0.821528 -1.118034 1.118034 
C -0.821528 1.41454 -0.419323 1.581139 0 1.581139 
z
" style="stroke: #9467bd"/>
    </defs>
    <g clip-path="url(#pa4d9cf83ea)">
     <use xlink:href="#m28577cfc72" x="73.832727" y="238.291074" style="fill: #9467bd; stroke: #9467bd"/>
     <use xlink:href="#m28577cfc72" x="85.027712" y="185.35204" style="fill: #9467bd; stroke: #9467bd"/>
     <use xlink:href="#m28577cfc72" x="96.222696" y="133.705174" style="fill: #9467bd; stroke: #9467bd"/>
     <use xlink:href="#m28577cfc72" x="107.41768" y="124.238764" style="fill: #9467bd; stroke: #9467bd"/>
     <use xlink:href="#m28577cfc72" x="118.612665" y="109.432912" style="fill: #9467bd; stroke: #9467bd"/>
     <use xlink:href="#m28577cfc72" x="129.807649" y="99.277725" style="fill: #9467bd; stroke: #9467bd"/>
     <use xlink:href="#m28577cfc72" x="141.002633" y="97.177241" style="fill: #9467bd; stroke: #9467bd"/>
     <use xlink:href="#m28577cfc72" x="152.197618" y="93.909821" style="fill: #9467bd; stroke: #9467bd"/>
     <use xlink:href="#m28577cfc72" x="163.392602" y="88.746842" style="fill: #9467bd; stroke: #9467bd"/>
     <use xlink:href="#m28577cfc72" x="174.587586" y="88.610225" style="fill: #9467bd; stroke: #9467bd"/>
     <use xlink:href="#m28577cfc72" x="185.782571" y="80.464445" style="fill: #9467bd; stroke: #9467bd"/>
     <use xlink:href="#m28577cfc72" x="196.977555" y="83.04878" style="fill: #9467bd; stroke: #9467bd"/>
     <use xlink:href="#m28577cfc72" x="208.172539" y="80.447368" style="fill: #9467bd; stroke: #9467bd"/>
     <use xlink:href="#m28577cfc72" x="219.367524" y="82.462466" style="fill: #9467bd; stroke: #9467bd"/>
     <use xlink:href="#m28577cfc72" x="230.562508" y="75.796702" style="fill: #9467bd; stroke: #9467bd"/>
     <use xlink:href="#m28577cfc72" x="241.757492" y="74.971308" style="fill: #9467bd; stroke: #9467bd"/>
     <use xlink:href="#m28577cfc72" x="252.952476" y="76.172398" style="fill: #9467bd; stroke: #9467bd"/>
     <use xlink:href="#m28577cfc72" x="264.147461" y="73.519754" style="fill: #9467bd; stroke: #9467bd"/>
     <use xlink:href="#m28577cfc72" x="275.342445" y="74.675305" style="fill: #9467bd; stroke: #9467bd"/>
     <use xlink:href="#m28577cfc72" x="286.537429" y="74.128838" style="fill: #9467bd; stroke: #9467bd"/>
     <use xlink:href="#m28577cfc72" x="297.732414" y="75.694239" style="fill: #9467bd; stroke: #9467bd"/>
     <use xlink:href="#m28577cfc72" x="308.927398" y="70.77034" style="fill: #9467bd; stroke: #9467bd"/>
     <use xlink:href="#m28577cfc72" x="320.122382" y="72.455281" style="fill: #9467bd; stroke: #9467bd"/>
     <use xlink:href="#m28577cfc72" x="331.317367" y="70.96388" style="fill: #9467bd; stroke: #9467bd"/>
     <use xlink:href="#m28577cfc72" x="342.512351" y="72.216202" style="fill: #9467bd; stroke: #9467bd"/>
     <use xlink:href="#m28577cfc72" x="353.707335" y="75.11931" style="fill: #9467bd; stroke: #9467bd"/>
     <use xlink:href="#m28577cfc72" x="364.90232" y="71.53881" style="fill: #9467bd; stroke: #9467bd"/>
     <use xlink:href="#m28577cfc72" x="376.097304" y="70.98665" style="fill: #9467bd; stroke: #9467bd"/>
     <use xlink:href="#m28577cfc72" x="387.292288" y="72.398357" style="fill: #9467bd; stroke: #9467bd"/>
     <use xlink:href="#m28577cfc72" x="398.487273" y="71.777889" style="fill: #9467bd; stroke: #9467bd"/>
    </g>
   </g>
   <g id="matplotlib.axis_1">
    <g id="xtick_1">
     <g id="line2d_1">
      <defs>
       <path id="mb6b7d7bb75" d="M 0 0 
L 0 3.5 
" style="stroke: #000000; stroke-width: 0.8"/>
      </defs>
      <g>
       <use xlink:href="#mb6b7d7bb75" x="73.832727" y="307.584" style="stroke: #000000; stroke-width: 0.8"/>
      </g>
     </g>
     <g id="text_1">
      <!-- 0 -->
      <g transform="translate(70.651477 322.182437) scale(0.1 -0.1)">
       <defs>
        <path id="DejaVuSans-30" d="M 2034 4250 
Q 1547 4250 1301 3770 
Q 1056 3291 1056 2328 
Q 1056 1369 1301 889 
Q 1547 409 2034 409 
Q 2525 409 2770 889 
Q 3016 1369 3016 2328 
Q 3016 3291 2770 3770 
Q 2525 4250 2034 4250 
z
M 2034 4750 
Q 2819 4750 3233 4129 
Q 3647 3509 3647 2328 
Q 3647 1150 3233 529 
Q 2819 -91 2034 -91 
Q 1250 -91 836 529 
Q 422 1150 422 2328 
Q 422 3509 836 4129 
Q 1250 4750 2034 4750 
z
" transform="scale(0.015625)"/>
       </defs>
       <use xlink:href="#DejaVuSans-30"/>
      </g>
     </g>
    </g>
    <g id="xtick_2">
     <g id="line2d_2">
      <g>
       <use xlink:href="#mb6b7d7bb75" x="129.807649" y="307.584" style="stroke: #000000; stroke-width: 0.8"/>
      </g>
     </g>
     <g id="text_2">
      <!-- 5 -->
      <g transform="translate(126.626399 322.182437) scale(0.1 -0.1)">
       <defs>
        <path id="DejaVuSans-35" d="M 691 4666 
L 3169 4666 
L 3169 4134 
L 1269 4134 
L 1269 2991 
Q 1406 3038 1543 3061 
Q 1681 3084 1819 3084 
Q 2600 3084 3056 2656 
Q 3513 2228 3513 1497 
Q 3513 744 3044 326 
Q 2575 -91 1722 -91 
Q 1428 -91 1123 -41 
Q 819 9 494 109 
L 494 744 
Q 775 591 1075 516 
Q 1375 441 1709 441 
Q 2250 441 2565 725 
Q 2881 1009 2881 1497 
Q 2881 1984 2565 2268 
Q 2250 2553 1709 2553 
Q 1456 2553 1204 2497 
Q 953 2441 691 2322 
L 691 4666 
z
" transform="scale(0.015625)"/>
       </defs>
       <use xlink:href="#DejaVuSans-35"/>
      </g>
     </g>
    </g>
    <g id="xtick_3">
     <g id="line2d_3">
      <g>
       <use xlink:href="#mb6b7d7bb75" x="185.782571" y="307.584" style="stroke: #000000; stroke-width: 0.8"/>
      </g>
     </g>
     <g id="text_3">
      <!-- 10 -->
      <g transform="translate(179.420071 322.182437) scale(0.1 -0.1)">
       <defs>
        <path id="DejaVuSans-31" d="M 794 531 
L 1825 531 
L 1825 4091 
L 703 3866 
L 703 4441 
L 1819 4666 
L 2450 4666 
L 2450 531 
L 3481 531 
L 3481 0 
L 794 0 
L 794 531 
z
" transform="scale(0.015625)"/>
       </defs>
       <use xlink:href="#DejaVuSans-31"/>
       <use xlink:href="#DejaVuSans-30" x="63.623047"/>
      </g>
     </g>
    </g>
    <g id="xtick_4">
     <g id="line2d_4">
      <g>
       <use xlink:href="#mb6b7d7bb75" x="241.757492" y="307.584" style="stroke: #000000; stroke-width: 0.8"/>
      </g>
     </g>
     <g id="text_4">
      <!-- 15 -->
      <g transform="translate(235.394992 322.182437) scale(0.1 -0.1)">
       <use xlink:href="#DejaVuSans-31"/>
       <use xlink:href="#DejaVuSans-35" x="63.623047"/>
      </g>
     </g>
    </g>
    <g id="xtick_5">
     <g id="line2d_5">
      <g>
       <use xlink:href="#mb6b7d7bb75" x="297.732414" y="307.584" style="stroke: #000000; stroke-width: 0.8"/>
      </g>
     </g>
     <g id="text_5">
      <!-- 20 -->
      <g transform="translate(291.369914 322.182437) scale(0.1 -0.1)">
       <defs>
        <path id="DejaVuSans-32" d="M 1228 531 
L 3431 531 
L 3431 0 
L 469 0 
L 469 531 
Q 828 903 1448 1529 
Q 2069 2156 2228 2338 
Q 2531 2678 2651 2914 
Q 2772 3150 2772 3378 
Q 2772 3750 2511 3984 
Q 2250 4219 1831 4219 
Q 1534 4219 1204 4116 
Q 875 4013 500 3803 
L 500 4441 
Q 881 4594 1212 4672 
Q 1544 4750 1819 4750 
Q 2544 4750 2975 4387 
Q 3406 4025 3406 3419 
Q 3406 3131 3298 2873 
Q 3191 2616 2906 2266 
Q 2828 2175 2409 1742 
Q 1991 1309 1228 531 
z
" transform="scale(0.015625)"/>
       </defs>
       <use xlink:href="#DejaVuSans-32"/>
       <use xlink:href="#DejaVuSans-30" x="63.623047"/>
      </g>
     </g>
    </g>
    <g id="xtick_6">
     <g id="line2d_6">
      <g>
       <use xlink:href="#mb6b7d7bb75" x="353.707335" y="307.584" style="stroke: #000000; stroke-width: 0.8"/>
      </g>
     </g>
     <g id="text_6">
      <!-- 25 -->
      <g transform="translate(347.344835 322.182437) scale(0.1 -0.1)">
       <use xlink:href="#DejaVuSans-32"/>
       <use xlink:href="#DejaVuSans-35" x="63.623047"/>
      </g>
     </g>
    </g>
    <g id="xtick_7">
     <g id="line2d_7">
      <g>
       <use xlink:href="#mb6b7d7bb75" x="409.682257" y="307.584" style="stroke: #000000; stroke-width: 0.8"/>
      </g>
     </g>
     <g id="text_7">
      <!-- 30 -->
      <g transform="translate(403.319757 322.182437) scale(0.1 -0.1)">
       <defs>
        <path id="DejaVuSans-33" d="M 2597 2516 
Q 3050 2419 3304 2112 
Q 3559 1806 3559 1356 
Q 3559 666 3084 287 
Q 2609 -91 1734 -91 
Q 1441 -91 1130 -33 
Q 819 25 488 141 
L 488 750 
Q 750 597 1062 519 
Q 1375 441 1716 441 
Q 2309 441 2620 675 
Q 2931 909 2931 1356 
Q 2931 1769 2642 2001 
Q 2353 2234 1838 2234 
L 1294 2234 
L 1294 2753 
L 1863 2753 
Q 2328 2753 2575 2939 
Q 2822 3125 2822 3475 
Q 2822 3834 2567 4026 
Q 2313 4219 1838 4219 
Q 1578 4219 1281 4162 
Q 984 4106 628 3988 
L 628 4550 
Q 988 4650 1302 4700 
Q 1616 4750 1894 4750 
Q 2613 4750 3031 4423 
Q 3450 4097 3450 3541 
Q 3450 3153 3228 2886 
Q 3006 2619 2597 2516 
z
" transform="scale(0.015625)"/>
       </defs>
       <use xlink:href="#DejaVuSans-33"/>
       <use xlink:href="#DejaVuSans-30" x="63.623047"/>
      </g>
     </g>
    </g>
    <g id="text_8">
     <!-- Global Rounds -->
     <g transform="translate(200.195937 335.860562) scale(0.1 -0.1)">
      <defs>
       <path id="DejaVuSans-47" d="M 3809 666 
L 3809 1919 
L 2778 1919 
L 2778 2438 
L 4434 2438 
L 4434 434 
Q 4069 175 3628 42 
Q 3188 -91 2688 -91 
Q 1594 -91 976 548 
Q 359 1188 359 2328 
Q 359 3472 976 4111 
Q 1594 4750 2688 4750 
Q 3144 4750 3555 4637 
Q 3966 4525 4313 4306 
L 4313 3634 
Q 3963 3931 3569 4081 
Q 3175 4231 2741 4231 
Q 1884 4231 1454 3753 
Q 1025 3275 1025 2328 
Q 1025 1384 1454 906 
Q 1884 428 2741 428 
Q 3075 428 3337 486 
Q 3600 544 3809 666 
z
" transform="scale(0.015625)"/>
       <path id="DejaVuSans-6c" d="M 603 4863 
L 1178 4863 
L 1178 0 
L 603 0 
L 603 4863 
z
" transform="scale(0.015625)"/>
       <path id="DejaVuSans-6f" d="M 1959 3097 
Q 1497 3097 1228 2736 
Q 959 2375 959 1747 
Q 959 1119 1226 758 
Q 1494 397 1959 397 
Q 2419 397 2687 759 
Q 2956 1122 2956 1747 
Q 2956 2369 2687 2733 
Q 2419 3097 1959 3097 
z
M 1959 3584 
Q 2709 3584 3137 3096 
Q 3566 2609 3566 1747 
Q 3566 888 3137 398 
Q 2709 -91 1959 -91 
Q 1206 -91 779 398 
Q 353 888 353 1747 
Q 353 2609 779 3096 
Q 1206 3584 1959 3584 
z
" transform="scale(0.015625)"/>
       <path id="DejaVuSans-62" d="M 3116 1747 
Q 3116 2381 2855 2742 
Q 2594 3103 2138 3103 
Q 1681 3103 1420 2742 
Q 1159 2381 1159 1747 
Q 1159 1113 1420 752 
Q 1681 391 2138 391 
Q 2594 391 2855 752 
Q 3116 1113 3116 1747 
z
M 1159 2969 
Q 1341 3281 1617 3432 
Q 1894 3584 2278 3584 
Q 2916 3584 3314 3078 
Q 3713 2572 3713 1747 
Q 3713 922 3314 415 
Q 2916 -91 2278 -91 
Q 1894 -91 1617 61 
Q 1341 213 1159 525 
L 1159 0 
L 581 0 
L 581 4863 
L 1159 4863 
L 1159 2969 
z
" transform="scale(0.015625)"/>
       <path id="DejaVuSans-61" d="M 2194 1759 
Q 1497 1759 1228 1600 
Q 959 1441 959 1056 
Q 959 750 1161 570 
Q 1363 391 1709 391 
Q 2188 391 2477 730 
Q 2766 1069 2766 1631 
L 2766 1759 
L 2194 1759 
z
M 3341 1997 
L 3341 0 
L 2766 0 
L 2766 531 
Q 2569 213 2275 61 
Q 1981 -91 1556 -91 
Q 1019 -91 701 211 
Q 384 513 384 1019 
Q 384 1609 779 1909 
Q 1175 2209 1959 2209 
L 2766 2209 
L 2766 2266 
Q 2766 2663 2505 2880 
Q 2244 3097 1772 3097 
Q 1472 3097 1187 3025 
Q 903 2953 641 2809 
L 641 3341 
Q 956 3463 1253 3523 
Q 1550 3584 1831 3584 
Q 2591 3584 2966 3190 
Q 3341 2797 3341 1997 
z
" transform="scale(0.015625)"/>
       <path id="DejaVuSans-20" transform="scale(0.015625)"/>
       <path id="DejaVuSans-52" d="M 2841 2188 
Q 3044 2119 3236 1894 
Q 3428 1669 3622 1275 
L 4263 0 
L 3584 0 
L 2988 1197 
Q 2756 1666 2539 1819 
Q 2322 1972 1947 1972 
L 1259 1972 
L 1259 0 
L 628 0 
L 628 4666 
L 2053 4666 
Q 2853 4666 3247 4331 
Q 3641 3997 3641 3322 
Q 3641 2881 3436 2590 
Q 3231 2300 2841 2188 
z
M 1259 4147 
L 1259 2491 
L 2053 2491 
Q 2509 2491 2742 2702 
Q 2975 2913 2975 3322 
Q 2975 3731 2742 3939 
Q 2509 4147 2053 4147 
L 1259 4147 
z
" transform="scale(0.015625)"/>
       <path id="DejaVuSans-75" d="M 544 1381 
L 544 3500 
L 1119 3500 
L 1119 1403 
Q 1119 906 1312 657 
Q 1506 409 1894 409 
Q 2359 409 2629 706 
Q 2900 1003 2900 1516 
L 2900 3500 
L 3475 3500 
L 3475 0 
L 2900 0 
L 2900 538 
Q 2691 219 2414 64 
Q 2138 -91 1772 -91 
Q 1169 -91 856 284 
Q 544 659 544 1381 
z
M 1991 3584 
L 1991 3584 
z
" transform="scale(0.015625)"/>
       <path id="DejaVuSans-6e" d="M 3513 2113 
L 3513 0 
L 2938 0 
L 2938 2094 
Q 2938 2591 2744 2837 
Q 2550 3084 2163 3084 
Q 1697 3084 1428 2787 
Q 1159 2491 1159 1978 
L 1159 0 
L 581 0 
L 581 3500 
L 1159 3500 
L 1159 2956 
Q 1366 3272 1645 3428 
Q 1925 3584 2291 3584 
Q 2894 3584 3203 3211 
Q 3513 2838 3513 2113 
z
" transform="scale(0.015625)"/>
       <path id="DejaVuSans-64" d="M 2906 2969 
L 2906 4863 
L 3481 4863 
L 3481 0 
L 2906 0 
L 2906 525 
Q 2725 213 2448 61 
Q 2172 -91 1784 -91 
Q 1150 -91 751 415 
Q 353 922 353 1747 
Q 353 2572 751 3078 
Q 1150 3584 1784 3584 
Q 2172 3584 2448 3432 
Q 2725 3281 2906 2969 
z
M 947 1747 
Q 947 1113 1208 752 
Q 1469 391 1925 391 
Q 2381 391 2643 752 
Q 2906 1113 2906 1747 
Q 2906 2381 2643 2742 
Q 2381 3103 1925 3103 
Q 1469 3103 1208 2742 
Q 947 2381 947 1747 
z
" transform="scale(0.015625)"/>
       <path id="DejaVuSans-73" d="M 2834 3397 
L 2834 2853 
Q 2591 2978 2328 3040 
Q 2066 3103 1784 3103 
Q 1356 3103 1142 2972 
Q 928 2841 928 2578 
Q 928 2378 1081 2264 
Q 1234 2150 1697 2047 
L 1894 2003 
Q 2506 1872 2764 1633 
Q 3022 1394 3022 966 
Q 3022 478 2636 193 
Q 2250 -91 1575 -91 
Q 1294 -91 989 -36 
Q 684 19 347 128 
L 347 722 
Q 666 556 975 473 
Q 1284 391 1588 391 
Q 1994 391 2212 530 
Q 2431 669 2431 922 
Q 2431 1156 2273 1281 
Q 2116 1406 1581 1522 
L 1381 1569 
Q 847 1681 609 1914 
Q 372 2147 372 2553 
Q 372 3047 722 3315 
Q 1072 3584 1716 3584 
Q 2034 3584 2315 3537 
Q 2597 3491 2834 3397 
z
" transform="scale(0.015625)"/>
      </defs>
      <use xlink:href="#DejaVuSans-47"/>
      <use xlink:href="#DejaVuSans-6c" x="77.490234"/>
      <use xlink:href="#DejaVuSans-6f" x="105.273438"/>
      <use xlink:href="#DejaVuSans-62" x="166.455078"/>
      <use xlink:href="#DejaVuSans-61" x="229.931641"/>
      <use xlink:href="#DejaVuSans-6c" x="291.210938"/>
      <use xlink:href="#DejaVuSans-20" x="318.994141"/>
      <use xlink:href="#DejaVuSans-52" x="350.78125"/>
      <use xlink:href="#DejaVuSans-6f" x="415.763672"/>
      <use xlink:href="#DejaVuSans-75" x="476.945312"/>
      <use xlink:href="#DejaVuSans-6e" x="540.324219"/>
      <use xlink:href="#DejaVuSans-64" x="603.703125"/>
      <use xlink:href="#DejaVuSans-73" x="667.179688"/>
     </g>
    </g>
   </g>
   <g id="matplotlib.axis_2">
    <g id="ytick_1">
     <g id="line2d_8">
      <defs>
       <path id="m34d2e5dd2c" d="M 0 0 
L -3.5 0 
" style="stroke: #000000; stroke-width: 0.8"/>
      </defs>
      <g>
       <use xlink:href="#m34d2e5dd2c" x="57.6" y="271.625588" style="stroke: #000000; stroke-width: 0.8"/>
      </g>
     </g>
     <g id="text_9">
      <!-- 0.2 -->
      <g transform="translate(34.696875 275.424807) scale(0.1 -0.1)">
       <defs>
        <path id="DejaVuSans-2e" d="M 684 794 
L 1344 794 
L 1344 0 
L 684 0 
L 684 794 
z
" transform="scale(0.015625)"/>
       </defs>
       <use xlink:href="#DejaVuSans-30"/>
       <use xlink:href="#DejaVuSans-2e" x="63.623047"/>
       <use xlink:href="#DejaVuSans-32" x="95.410156"/>
      </g>
     </g>
    </g>
    <g id="ytick_2">
     <g id="line2d_9">
      <g>
       <use xlink:href="#m34d2e5dd2c" x="57.6" y="214.701896" style="stroke: #000000; stroke-width: 0.8"/>
      </g>
     </g>
     <g id="text_10">
      <!-- 0.4 -->
      <g transform="translate(34.696875 218.501115) scale(0.1 -0.1)">
       <defs>
        <path id="DejaVuSans-34" d="M 2419 4116 
L 825 1625 
L 2419 1625 
L 2419 4116 
z
M 2253 4666 
L 3047 4666 
L 3047 1625 
L 3713 1625 
L 3713 1100 
L 3047 1100 
L 3047 0 
L 2419 0 
L 2419 1100 
L 313 1100 
L 313 1709 
L 2253 4666 
z
" transform="scale(0.015625)"/>
       </defs>
       <use xlink:href="#DejaVuSans-30"/>
       <use xlink:href="#DejaVuSans-2e" x="63.623047"/>
       <use xlink:href="#DejaVuSans-34" x="95.410156"/>
      </g>
     </g>
    </g>
    <g id="ytick_3">
     <g id="line2d_10">
      <g>
       <use xlink:href="#m34d2e5dd2c" x="57.6" y="157.778204" style="stroke: #000000; stroke-width: 0.8"/>
      </g>
     </g>
     <g id="text_11">
      <!-- 0.6 -->
      <g transform="translate(34.696875 161.577422) scale(0.1 -0.1)">
       <defs>
        <path id="DejaVuSans-36" d="M 2113 2584 
Q 1688 2584 1439 2293 
Q 1191 2003 1191 1497 
Q 1191 994 1439 701 
Q 1688 409 2113 409 
Q 2538 409 2786 701 
Q 3034 994 3034 1497 
Q 3034 2003 2786 2293 
Q 2538 2584 2113 2584 
z
M 3366 4563 
L 3366 3988 
Q 3128 4100 2886 4159 
Q 2644 4219 2406 4219 
Q 1781 4219 1451 3797 
Q 1122 3375 1075 2522 
Q 1259 2794 1537 2939 
Q 1816 3084 2150 3084 
Q 2853 3084 3261 2657 
Q 3669 2231 3669 1497 
Q 3669 778 3244 343 
Q 2819 -91 2113 -91 
Q 1303 -91 875 529 
Q 447 1150 447 2328 
Q 447 3434 972 4092 
Q 1497 4750 2381 4750 
Q 2619 4750 2861 4703 
Q 3103 4656 3366 4563 
z
" transform="scale(0.015625)"/>
       </defs>
       <use xlink:href="#DejaVuSans-30"/>
       <use xlink:href="#DejaVuSans-2e" x="63.623047"/>
       <use xlink:href="#DejaVuSans-36" x="95.410156"/>
      </g>
     </g>
    </g>
    <g id="ytick_4">
     <g id="line2d_11">
      <g>
       <use xlink:href="#m34d2e5dd2c" x="57.6" y="100.854511" style="stroke: #000000; stroke-width: 0.8"/>
      </g>
     </g>
     <g id="text_12">
      <!-- 0.8 -->
      <g transform="translate(34.696875 104.65373) scale(0.1 -0.1)">
       <defs>
        <path id="DejaVuSans-38" d="M 2034 2216 
Q 1584 2216 1326 1975 
Q 1069 1734 1069 1313 
Q 1069 891 1326 650 
Q 1584 409 2034 409 
Q 2484 409 2743 651 
Q 3003 894 3003 1313 
Q 3003 1734 2745 1975 
Q 2488 2216 2034 2216 
z
M 1403 2484 
Q 997 2584 770 2862 
Q 544 3141 544 3541 
Q 544 4100 942 4425 
Q 1341 4750 2034 4750 
Q 2731 4750 3128 4425 
Q 3525 4100 3525 3541 
Q 3525 3141 3298 2862 
Q 3072 2584 2669 2484 
Q 3125 2378 3379 2068 
Q 3634 1759 3634 1313 
Q 3634 634 3220 271 
Q 2806 -91 2034 -91 
Q 1263 -91 848 271 
Q 434 634 434 1313 
Q 434 1759 690 2068 
Q 947 2378 1403 2484 
z
M 1172 3481 
Q 1172 3119 1398 2916 
Q 1625 2713 2034 2713 
Q 2441 2713 2670 2916 
Q 2900 3119 2900 3481 
Q 2900 3844 2670 4047 
Q 2441 4250 2034 4250 
Q 1625 4250 1398 4047 
Q 1172 3844 1172 3481 
z
" transform="scale(0.015625)"/>
       </defs>
       <use xlink:href="#DejaVuSans-30"/>
       <use xlink:href="#DejaVuSans-2e" x="63.623047"/>
       <use xlink:href="#DejaVuSans-38" x="95.410156"/>
      </g>
     </g>
    </g>
    <g id="ytick_5">
     <g id="line2d_12">
      <g>
       <use xlink:href="#m34d2e5dd2c" x="57.6" y="43.930819" style="stroke: #000000; stroke-width: 0.8"/>
      </g>
     </g>
     <g id="text_13">
      <!-- 1.0 -->
      <g transform="translate(34.696875 47.730038) scale(0.1 -0.1)">
       <use xlink:href="#DejaVuSans-31"/>
       <use xlink:href="#DejaVuSans-2e" x="63.623047"/>
       <use xlink:href="#DejaVuSans-30" x="95.410156"/>
      </g>
     </g>
    </g>
    <g id="text_14">
     <!-- Accuracy -->
     <g transform="translate(28.617187 197.356125) rotate(-90) scale(0.1 -0.1)">
      <defs>
       <path id="DejaVuSans-41" d="M 2188 4044 
L 1331 1722 
L 3047 1722 
L 2188 4044 
z
M 1831 4666 
L 2547 4666 
L 4325 0 
L 3669 0 
L 3244 1197 
L 1141 1197 
L 716 0 
L 50 0 
L 1831 4666 
z
" transform="scale(0.015625)"/>
       <path id="DejaVuSans-63" d="M 3122 3366 
L 3122 2828 
Q 2878 2963 2633 3030 
Q 2388 3097 2138 3097 
Q 1578 3097 1268 2742 
Q 959 2388 959 1747 
Q 959 1106 1268 751 
Q 1578 397 2138 397 
Q 2388 397 2633 464 
Q 2878 531 3122 666 
L 3122 134 
Q 2881 22 2623 -34 
Q 2366 -91 2075 -91 
Q 1284 -91 818 406 
Q 353 903 353 1747 
Q 353 2603 823 3093 
Q 1294 3584 2113 3584 
Q 2378 3584 2631 3529 
Q 2884 3475 3122 3366 
z
" transform="scale(0.015625)"/>
       <path id="DejaVuSans-72" d="M 2631 2963 
Q 2534 3019 2420 3045 
Q 2306 3072 2169 3072 
Q 1681 3072 1420 2755 
Q 1159 2438 1159 1844 
L 1159 0 
L 581 0 
L 581 3500 
L 1159 3500 
L 1159 2956 
Q 1341 3275 1631 3429 
Q 1922 3584 2338 3584 
Q 2397 3584 2469 3576 
Q 2541 3569 2628 3553 
L 2631 2963 
z
" transform="scale(0.015625)"/>
       <path id="DejaVuSans-79" d="M 2059 -325 
Q 1816 -950 1584 -1140 
Q 1353 -1331 966 -1331 
L 506 -1331 
L 506 -850 
L 844 -850 
Q 1081 -850 1212 -737 
Q 1344 -625 1503 -206 
L 1606 56 
L 191 3500 
L 800 3500 
L 1894 763 
L 2988 3500 
L 3597 3500 
L 2059 -325 
z
" transform="scale(0.015625)"/>
      </defs>
      <use xlink:href="#DejaVuSans-41"/>
      <use xlink:href="#DejaVuSans-63" x="66.658203"/>
      <use xlink:href="#DejaVuSans-63" x="121.638672"/>
      <use xlink:href="#DejaVuSans-75" x="176.619141"/>
      <use xlink:href="#DejaVuSans-72" x="239.998047"/>
      <use xlink:href="#DejaVuSans-61" x="281.111328"/>
      <use xlink:href="#DejaVuSans-63" x="342.390625"/>
      <use xlink:href="#DejaVuSans-79" x="397.371094"/>
     </g>
    </g>
   </g>
   <g id="line2d_13">
    <path d="M 73.832727 295.488 
L 85.027712 287.598376 
L 96.222696 291.78796 
L 107.41768 287.985457 
L 118.612665 286.078514 
L 129.807649 285.002656 
L 141.002633 281.689697 
L 152.197618 288.577464 
L 163.392602 284.376495 
L 174.587586 264.942747 
L 185.782571 279.179362 
L 196.977555 278.348276 
L 208.172539 273.16822 
L 219.367524 257.064508 
L 230.562508 270.492807 
L 241.757492 259.079606 
L 252.952476 254.992485 
L 264.147461 245.093455 
L 275.342445 239.298623 
L 286.537429 246.579164 
L 297.732414 243.47113 
L 308.927398 233.674563 
L 320.122382 238.359382 
L 331.317367 241.438954 
L 342.512351 228.164349 
L 353.707335 227.088491 
L 364.90232 222.170284 
L 376.097304 230.048523 
L 387.292288 212.69249 
L 398.487273 213.432498 
" clip-path="url(#pa4d9cf83ea)" style="fill: none; stroke: #1f77b4; stroke-width: 1.5; stroke-linecap: square"/>
   </g>
   <g id="line2d_14">
    <path d="M 73.832727 106.171184 
L 85.027712 76.912406 
L 96.222696 68.954474 
L 107.41768 65.590284 
L 118.612665 61.878859 
L 129.807649 59.396986 
L 141.002633 59.436833 
L 152.197618 58.924519 
L 163.392602 58.019433 
L 174.587586 56.960652 
L 185.782571 56.960652 
L 196.977555 56.533724 
L 208.172539 56.340184 
L 219.367524 55.474944 
L 230.562508 57.02896 
L 241.757492 56.203567 
L 252.952476 54.74632 
L 264.147461 54.831706 
L 275.342445 54.615396 
L 286.537429 54.905707 
L 297.732414 55.099247 
L 308.927398 54.364932 
L 320.122382 53.80708 
L 331.317367 53.943696 
L 342.512351 53.568 
L 353.707335 55.366789 
L 364.90232 53.892465 
L 376.097304 54.199853 
L 387.292288 53.676155 
L 398.487273 53.585077 
" clip-path="url(#pa4d9cf83ea)" style="fill: none; stroke: #ff7f0e; stroke-width: 1.5; stroke-linecap: square"/>
   </g>
   <g id="line2d_15">
    <path d="M 73.832727 128.860968 
L 85.027712 93.795973 
L 96.222696 74.578535 
L 107.41768 68.425084 
L 118.612665 66.575064 
L 129.807649 65.021047 
L 141.002633 63.603647 
L 152.197618 61.212852 
L 163.392602 58.87898 
L 174.587586 61.298237 
L 185.782571 58.78221 
L 196.977555 58.725287 
L 208.172539 58.053587 
L 219.367524 57.347733 
L 230.562508 58.605747 
L 241.757492 57.529889 
L 252.952476 56.579263 
L 264.147461 57.404657 
L 275.342445 57.063115 
L 286.537429 55.856332 
L 297.732414 56.721573 
L 308.927398 55.782332 
L 320.122382 56.021411 
L 331.317367 56.072642 
L 342.512351 56.260491 
L 353.707335 55.987257 
L 364.90232 56.516647 
L 376.097304 54.877245 
L 387.292288 54.609704 
L 398.487273 54.882937 
" clip-path="url(#pa4d9cf83ea)" style="fill: none; stroke: #2ca02c; stroke-width: 1.5; stroke-linecap: square"/>
   </g>
   <g id="line2d_16">
    <path d="M 73.832727 167.398308 
L 85.027712 97.985557 
L 96.222696 79.502434 
L 107.41768 73.331906 
L 118.612665 66.256291 
L 129.807649 64.633966 
L 141.002633 65.271511 
L 152.197618 61.565779 
L 163.392602 61.406392 
L 174.587586 61.275468 
L 185.782571 59.607604 
L 196.977555 61.360853 
L 208.172539 58.884673 
L 219.367524 59.966223 
L 230.562508 58.622824 
L 241.757492 58.082049 
L 252.952476 57.50712 
L 264.147461 57.353426 
L 275.342445 57.461581 
L 286.537429 58.030817 
L 297.732414 56.875267 
L 308.927398 57.717737 
L 320.122382 56.972037 
L 331.317367 56.898036 
L 342.512351 56.18649 
L 353.707335 56.636187 
L 364.90232 56.015719 
L 376.097304 56.562186 
L 387.292288 56.30603 
L 398.487273 56.249106 
" clip-path="url(#pa4d9cf83ea)" style="fill: none; stroke: #d62728; stroke-width: 1.5; stroke-linecap: square"/>
   </g>
   <g id="line2d_17">
    <path d="M 73.832727 238.291074 
L 85.027712 185.35204 
L 96.222696 133.705174 
L 107.41768 124.238764 
L 118.612665 109.432912 
L 129.807649 99.277725 
L 141.002633 97.177241 
L 152.197618 93.909821 
L 163.392602 88.746842 
L 174.587586 88.610225 
L 185.782571 80.464445 
L 196.977555 83.04878 
L 208.172539 80.447368 
L 219.367524 82.462466 
L 230.562508 75.796702 
L 241.757492 74.971308 
L 252.952476 76.172398 
L 264.147461 73.519754 
L 275.342445 74.675305 
L 286.537429 74.128838 
L 297.732414 75.694239 
L 308.927398 70.77034 
L 320.122382 72.455281 
L 331.317367 70.96388 
L 342.512351 72.216202 
L 353.707335 75.11931 
L 364.90232 71.53881 
L 376.097304 70.98665 
L 387.292288 72.398357 
L 398.487273 71.777889 
" clip-path="url(#pa4d9cf83ea)" style="fill: none; stroke: #9467bd; stroke-width: 1.5; stroke-linecap: square"/>
   </g>
   <g id="patch_3">
    <path d="M 57.6 307.584 
L 57.6 41.472 
" style="fill: none; stroke: #000000; stroke-width: 0.8; stroke-linejoin: miter; stroke-linecap: square"/>
   </g>
   <g id="patch_4">
    <path d="M 414.72 307.584 
L 414.72 41.472 
" style="fill: none; stroke: #000000; stroke-width: 0.8; stroke-linejoin: miter; stroke-linecap: square"/>
   </g>
   <g id="patch_5">
    <path d="M 57.6 307.584 
L 414.72 307.584 
" style="fill: none; stroke: #000000; stroke-width: 0.8; stroke-linejoin: miter; stroke-linecap: square"/>
   </g>
   <g id="patch_6">
    <path d="M 57.6 41.472 
L 414.72 41.472 
" style="fill: none; stroke: #000000; stroke-width: 0.8; stroke-linejoin: miter; stroke-linecap: square"/>
   </g>
   <g id="text_15">
    <!-- Mnist -->
    <g transform="translate(220.035937 35.472) scale(0.12 -0.12)">
     <defs>
      <path id="DejaVuSans-4d" d="M 628 4666 
L 1569 4666 
L 2759 1491 
L 3956 4666 
L 4897 4666 
L 4897 0 
L 4281 0 
L 4281 4097 
L 3078 897 
L 2444 897 
L 1241 4097 
L 1241 0 
L 628 0 
L 628 4666 
z
" transform="scale(0.015625)"/>
      <path id="DejaVuSans-69" d="M 603 3500 
L 1178 3500 
L 1178 0 
L 603 0 
L 603 3500 
z
M 603 4863 
L 1178 4863 
L 1178 4134 
L 603 4134 
L 603 4863 
z
" transform="scale(0.015625)"/>
      <path id="DejaVuSans-74" d="M 1172 4494 
L 1172 3500 
L 2356 3500 
L 2356 3053 
L 1172 3053 
L 1172 1153 
Q 1172 725 1289 603 
Q 1406 481 1766 481 
L 2356 481 
L 2356 0 
L 1766 0 
Q 1100 0 847 248 
Q 594 497 594 1153 
L 594 3053 
L 172 3053 
L 172 3500 
L 594 3500 
L 594 4494 
L 1172 4494 
z
" transform="scale(0.015625)"/>
     </defs>
     <use xlink:href="#DejaVuSans-4d"/>
     <use xlink:href="#DejaVuSans-6e" x="86.279297"/>
     <use xlink:href="#DejaVuSans-69" x="149.658203"/>
     <use xlink:href="#DejaVuSans-73" x="177.441406"/>
     <use xlink:href="#DejaVuSans-74" x="229.541016"/>
    </g>
   </g>
   <g id="legend_1">
    <g id="patch_7">
     <path d="M 199.617812 212.723313 
L 272.702187 212.723313 
Q 274.702187 212.723313 274.702187 210.723313 
L 274.702187 138.332688 
Q 274.702187 136.332688 272.702187 136.332688 
L 199.617812 136.332688 
Q 197.617812 136.332688 197.617812 138.332688 
L 197.617812 210.723313 
Q 197.617812 212.723313 199.617812 212.723313 
z
" style="fill: #ffffff; opacity: 0.8; stroke: #cccccc; stroke-linejoin: miter"/>
    </g>
    <g id="line2d_18">
     <path d="M 201.617812 144.431125 
L 211.617812 144.431125 
L 221.617812 144.431125 
" style="fill: none; stroke: #1f77b4; stroke-width: 1.5; stroke-linecap: square"/>
    </g>
    <g id="text_16">
     <!-- pathetic -->
     <g transform="translate(229.617812 147.931125) scale(0.1 -0.1)">
      <defs>
       <path id="DejaVuSans-70" d="M 1159 525 
L 1159 -1331 
L 581 -1331 
L 581 3500 
L 1159 3500 
L 1159 2969 
Q 1341 3281 1617 3432 
Q 1894 3584 2278 3584 
Q 2916 3584 3314 3078 
Q 3713 2572 3713 1747 
Q 3713 922 3314 415 
Q 2916 -91 2278 -91 
Q 1894 -91 1617 61 
Q 1341 213 1159 525 
z
M 3116 1747 
Q 3116 2381 2855 2742 
Q 2594 3103 2138 3103 
Q 1681 3103 1420 2742 
Q 1159 2381 1159 1747 
Q 1159 1113 1420 752 
Q 1681 391 2138 391 
Q 2594 391 2855 752 
Q 3116 1113 3116 1747 
z
" transform="scale(0.015625)"/>
       <path id="DejaVuSans-68" d="M 3513 2113 
L 3513 0 
L 2938 0 
L 2938 2094 
Q 2938 2591 2744 2837 
Q 2550 3084 2163 3084 
Q 1697 3084 1428 2787 
Q 1159 2491 1159 1978 
L 1159 0 
L 581 0 
L 581 4863 
L 1159 4863 
L 1159 2956 
Q 1366 3272 1645 3428 
Q 1925 3584 2291 3584 
Q 2894 3584 3203 3211 
Q 3513 2838 3513 2113 
z
" transform="scale(0.015625)"/>
       <path id="DejaVuSans-65" d="M 3597 1894 
L 3597 1613 
L 953 1613 
Q 991 1019 1311 708 
Q 1631 397 2203 397 
Q 2534 397 2845 478 
Q 3156 559 3463 722 
L 3463 178 
Q 3153 47 2828 -22 
Q 2503 -91 2169 -91 
Q 1331 -91 842 396 
Q 353 884 353 1716 
Q 353 2575 817 3079 
Q 1281 3584 2069 3584 
Q 2775 3584 3186 3129 
Q 3597 2675 3597 1894 
z
M 3022 2063 
Q 3016 2534 2758 2815 
Q 2500 3097 2075 3097 
Q 1594 3097 1305 2825 
Q 1016 2553 972 2059 
L 3022 2063 
z
" transform="scale(0.015625)"/>
      </defs>
      <use xlink:href="#DejaVuSans-70"/>
      <use xlink:href="#DejaVuSans-61" x="63.476562"/>
      <use xlink:href="#DejaVuSans-74" x="124.755859"/>
      <use xlink:href="#DejaVuSans-68" x="163.964844"/>
      <use xlink:href="#DejaVuSans-65" x="227.34375"/>
      <use xlink:href="#DejaVuSans-74" x="288.867188"/>
      <use xlink:href="#DejaVuSans-69" x="328.076172"/>
      <use xlink:href="#DejaVuSans-63" x="355.859375"/>
     </g>
    </g>
    <g id="line2d_19">
     <path d="M 201.617812 159.10925 
L 211.617812 159.10925 
L 221.617812 159.10925 
" style="fill: none; stroke: #ff7f0e; stroke-width: 1.5; stroke-linecap: square"/>
    </g>
    <g id="text_17">
     <!-- iid -->
     <g transform="translate(229.617812 162.60925) scale(0.1 -0.1)">
      <use xlink:href="#DejaVuSans-69"/>
      <use xlink:href="#DejaVuSans-69" x="27.783203"/>
      <use xlink:href="#DejaVuSans-64" x="55.566406"/>
     </g>
    </g>
    <g id="line2d_20">
     <path d="M 201.617812 173.787375 
L 211.617812 173.787375 
L 221.617812 173.787375 
" style="fill: none; stroke: #2ca02c; stroke-width: 1.5; stroke-linecap: square"/>
    </g>
    <g id="text_18">
     <!-- 1.0 -->
     <g transform="translate(229.617812 177.287375) scale(0.1 -0.1)">
      <use xlink:href="#DejaVuSans-31"/>
      <use xlink:href="#DejaVuSans-2e" x="63.623047"/>
      <use xlink:href="#DejaVuSans-30" x="95.410156"/>
     </g>
    </g>
    <g id="line2d_21">
     <path d="M 201.617812 188.4655 
L 211.617812 188.4655 
L 221.617812 188.4655 
" style="fill: none; stroke: #d62728; stroke-width: 1.5; stroke-linecap: square"/>
    </g>
    <g id="text_19">
     <!-- 0.5 -->
     <g transform="translate(229.617812 191.9655) scale(0.1 -0.1)">
      <use xlink:href="#DejaVuSans-30"/>
      <use xlink:href="#DejaVuSans-2e" x="63.623047"/>
      <use xlink:href="#DejaVuSans-35" x="95.410156"/>
     </g>
    </g>
    <g id="line2d_22">
     <path d="M 201.617812 203.143625 
L 211.617812 203.143625 
L 221.617812 203.143625 
" style="fill: none; stroke: #9467bd; stroke-width: 1.5; stroke-linecap: square"/>
    </g>
    <g id="text_20">
     <!-- 0.1 -->
     <g transform="translate(229.617812 206.643625) scale(0.1 -0.1)">
      <use xlink:href="#DejaVuSans-30"/>
      <use xlink:href="#DejaVuSans-2e" x="63.623047"/>
      <use xlink:href="#DejaVuSans-31" x="95.410156"/>
     </g>
    </g>
   </g>
  </g>
 </g>
 <defs>
  <clipPath id="pa4d9cf83ea">
   <rect x="57.6" y="41.472" width="357.12" height="266.112"/>
  </clipPath>
 </defs>
</svg>
